<?xml version="1.0" encoding="iso-8859-1"?>
<!-- Uploaded to: SVG Repo, www.svgrepo.com, Generator: SVG Repo Mixer Tools -->
<svg height="800px" width="800px" version="1.1" id="Layer_1" xmlns="http://www.w3.org/2000/svg" xmlns:xlink="http://www.w3.org/1999/xlink" 
	 viewBox="0 0 511.998 511.998" xml:space="preserve">
<circle style="fill:#FF5B62;" cx="255.999" cy="255.999" r="255.999"/>
<path style="fill:#FFFFFF;" d="M255.998,58.283c-51.194,44.251-108.476,67.702-174.198,62.406
	c-3.57,147.171,34.027,312.184,174.198,333.033c140.173-20.847,177.77-185.862,174.2-333.033
	C364.477,125.984,307.195,102.532,255.998,58.283z"/>
<path style="fill:#21D0C3;" d="M99.994,140.751c0.277,116.411,28.561,272.453,156.004,293.434
	c127.445-20.979,155.728-177.023,156.004-293.434c-57.959-0.002-109.638-21.163-156.004-57.862
	C209.632,119.589,157.953,140.749,99.994,140.751z"/>
<g>
	<path style="fill:#FAD24D;" d="M400.878,258.536h-144.88V82.889c46.365,36.699,98.047,57.86,156.004,57.862
		c-0.088,37.123-3.034,78.27-11.125,117.785H400.878z"/>
	<path style="fill:#FAD24D;" d="M111.12,258.536h144.878v175.649C169.195,419.895,128.404,342.944,111.12,258.536z"/>
	<circle style="fill:#FAD24D;" cx="255.999" cy="255.999" r="82.618"/>
</g>
<path style="fill:#FFFFFF;" d="M256,171.049c23.457,0,44.697,9.509,60.068,24.881s24.881,36.611,24.881,60.068
	c0,23.459-9.509,44.697-24.881,60.068S279.457,340.949,256,340.949c-23.459,0-44.697-9.509-60.068-24.881
	s-24.881-36.609-24.881-60.068c0-23.457,9.509-44.697,24.881-60.068S232.541,171.049,256,171.049z M175.398,253.87h31.575
	c0.247-12.361,2.815-24.672,7.708-36.093c-9.905-1.792-18.598-4.295-25.104-7.503c-8.585,12.449-13.763,27.43-14.181,43.597H175.398
	z M211.278,253.87h42.565v-32.696c-12.023-0.099-23.997-0.99-34.786-2.664C214.124,229.661,211.528,241.739,211.278,253.87z
	 M258.159,253.87h42.565c-0.252-12.12-2.839-24.185-7.766-35.326c-10.777,1.667-22.758,2.544-34.799,2.633V253.87z M305.025,253.87
	H336.6c-0.419-16.161-5.591-31.139-14.175-43.586c-6.473,3.226-15.167,5.733-25.096,7.527
	C302.212,229.224,304.778,241.521,305.025,253.87z M336.6,258.19h-31.584c-0.271,11.402-2.518,22.767-6.74,33.435
	c10.239,1.911,19.114,4.597,25.508,8.058C331.542,287.668,336.192,273.458,336.6,258.19z M300.712,258.19h-42.554v29.897
	c12.405,0.091,24.745,1.019,35.776,2.787c4.238-10.403,6.497-21.524,6.778-32.682V258.19z M253.839,258.19h-42.554
	c0.28,11.172,2.542,22.304,6.791,32.716c11.039-1.775,23.376-2.714,35.763-2.817V258.19z M206.982,258.19h-31.584
	c0.405,15.273,5.06,29.483,12.821,41.5c6.433-3.442,15.304-6.118,25.517-8.03c-4.231-10.678-6.482-22.055-6.754-33.471V258.19z
	 M192.159,206.739c6.326,3.003,14.759,5.338,24.365,7.004c0.611-1.262,1.253-2.509,1.925-3.742
	c7.496-13.776,18.648-25.838,33.461-34.532c-20.64,1.03-39.235,9.821-52.929,23.512c-2.436,2.436-4.714,5.027-6.824,7.757
	L192.159,206.739L192.159,206.739z M220.974,214.456c10.206,1.504,21.497,2.305,32.866,2.396v-37.516
	c-13.983,8.271-24.522,19.693-31.611,32.722C221.796,212.853,221.38,213.652,220.974,214.456z M258.159,216.856
	c11.382-0.084,22.682-0.875,32.881-2.372c-0.41-0.813-0.833-1.621-1.27-2.423c-7.088-13.029-17.627-24.452-31.611-32.722V216.856z
	 M295.487,213.771c9.628-1.667,18.06-4.01,24.352-7.031c-2.108-2.73-4.389-5.323-6.824-7.759
	c-13.692-13.692-32.288-22.481-52.927-23.512c14.812,8.694,25.964,20.756,33.461,34.53
	C294.225,211.243,294.872,212.499,295.487,213.771L295.487,213.771L295.487,213.771z M321.327,303.266
	c-6.2-3.266-14.814-5.797-24.767-7.589c-0.882,1.956-1.832,3.885-2.853,5.784c-7.501,13.955-18.723,26.211-33.663,35.068
	c20.658-1.021,39.268-9.812,52.971-23.515c3.021-3.021,5.801-6.28,8.315-9.748H321.327z M292.155,294.942
	c-10.488-1.608-22.199-2.454-33.998-2.542v40.238c14.071-8.421,24.659-20.025,31.754-33.225c0.791-1.473,1.539-2.965,2.245-4.473
	V294.942z M253.839,292.402c-11.785,0.097-23.488,0.955-33.985,2.566c0.702,1.499,1.444,2.983,2.232,4.447
	c7.095,13.2,17.68,24.802,31.754,33.225v-40.236L253.839,292.402L253.839,292.402z M215.448,295.702
	c-9.933,1.792-18.547,4.311-24.785,7.556c2.513,3.468,5.296,6.729,8.317,9.752c13.701,13.701,32.314,22.494,52.971,23.515
	c-14.94-8.857-26.163-21.114-33.666-35.068c-1.014-1.887-1.962-3.808-2.839-5.755L215.448,295.702L215.448,295.702z"/>
</svg>